<mxfile host="app.diagrams.net" modified="2023-10-10T15:23:14.502Z" agent="Mozilla/5.0 (Windows NT 10.0; Win64; x64) AppleWebKit/537.36 (KHTML, like Gecko) Chrome/117.0.0.0 Safari/537.36" etag="kGap9LN3fv0xVYU81Uy2" version="22.0.4" type="github">
  <diagram name="Page-1" id="aLFsTQw2bEs_TtQEnnE1">
    <mxGraphModel dx="880" dy="446" grid="1" gridSize="10" guides="1" tooltips="1" connect="1" arrows="1" fold="1" page="1" pageScale="1" pageWidth="827" pageHeight="1169" math="0" shadow="0">
      <root>
        <mxCell id="0" />
        <mxCell id="1" parent="0" />
        <mxCell id="Cj2O87Uv7i_2hNzbeD16-1" value="Customer&lt;br&gt;" style="shape=umlActor;verticalLabelPosition=bottom;verticalAlign=top;html=1;outlineConnect=0;" vertex="1" parent="1">
          <mxGeometry x="30" y="40" width="50" height="70" as="geometry" />
        </mxCell>
        <mxCell id="Cj2O87Uv7i_2hNzbeD16-2" value="" style="rounded=0;whiteSpace=wrap;html=1;" vertex="1" parent="1">
          <mxGeometry x="5" y="140" width="100" height="30" as="geometry" />
        </mxCell>
        <mxCell id="Cj2O87Uv7i_2hNzbeD16-4" value=":Buyer Interface" style="rounded=0;whiteSpace=wrap;html=1;" vertex="1" parent="1">
          <mxGeometry x="160" y="140" width="100" height="30" as="geometry" />
        </mxCell>
        <mxCell id="Cj2O87Uv7i_2hNzbeD16-5" value=":Buying Interface" style="rounded=0;whiteSpace=wrap;html=1;" vertex="1" parent="1">
          <mxGeometry x="290" y="140" width="100" height="30" as="geometry" />
        </mxCell>
        <mxCell id="Cj2O87Uv7i_2hNzbeD16-6" value=":Buy&amp;nbsp; Tickets Interface" style="rounded=0;whiteSpace=wrap;html=1;" vertex="1" parent="1">
          <mxGeometry x="414" y="140" width="100" height="30" as="geometry" />
        </mxCell>
        <mxCell id="Cj2O87Uv7i_2hNzbeD16-7" value=":Buying" style="rounded=0;whiteSpace=wrap;html=1;" vertex="1" parent="1">
          <mxGeometry x="540" y="140" width="100" height="30" as="geometry" />
        </mxCell>
        <mxCell id="Cj2O87Uv7i_2hNzbeD16-8" value=":Ticket" style="rounded=0;whiteSpace=wrap;html=1;" vertex="1" parent="1">
          <mxGeometry x="670" y="140" width="100" height="30" as="geometry" />
        </mxCell>
        <mxCell id="Cj2O87Uv7i_2hNzbeD16-9" value="" style="endArrow=none;dashed=1;html=1;rounded=0;entryX=0.5;entryY=1;entryDx=0;entryDy=0;" edge="1" parent="1" target="Cj2O87Uv7i_2hNzbeD16-2">
          <mxGeometry width="50" height="50" relative="1" as="geometry">
            <mxPoint x="55" y="470" as="sourcePoint" />
            <mxPoint x="440" y="310" as="targetPoint" />
          </mxGeometry>
        </mxCell>
        <mxCell id="Cj2O87Uv7i_2hNzbeD16-10" value="" style="endArrow=none;dashed=1;html=1;rounded=0;entryX=0.5;entryY=1;entryDx=0;entryDy=0;" edge="1" parent="1">
          <mxGeometry width="50" height="50" relative="1" as="geometry">
            <mxPoint x="209.5" y="470" as="sourcePoint" />
            <mxPoint x="209.5" y="170" as="targetPoint" />
          </mxGeometry>
        </mxCell>
        <mxCell id="Cj2O87Uv7i_2hNzbeD16-11" value="" style="endArrow=none;dashed=1;html=1;rounded=0;entryX=0.5;entryY=1;entryDx=0;entryDy=0;" edge="1" parent="1">
          <mxGeometry width="50" height="50" relative="1" as="geometry">
            <mxPoint x="339.5" y="470" as="sourcePoint" />
            <mxPoint x="339.5" y="170" as="targetPoint" />
          </mxGeometry>
        </mxCell>
        <mxCell id="Cj2O87Uv7i_2hNzbeD16-12" value="" style="endArrow=none;dashed=1;html=1;rounded=0;entryX=0.5;entryY=1;entryDx=0;entryDy=0;" edge="1" parent="1">
          <mxGeometry width="50" height="50" relative="1" as="geometry">
            <mxPoint x="460" y="470" as="sourcePoint" />
            <mxPoint x="460" y="170" as="targetPoint" />
          </mxGeometry>
        </mxCell>
        <mxCell id="Cj2O87Uv7i_2hNzbeD16-13" value="" style="endArrow=none;dashed=1;html=1;rounded=0;entryX=0.5;entryY=1;entryDx=0;entryDy=0;" edge="1" parent="1">
          <mxGeometry width="50" height="50" relative="1" as="geometry">
            <mxPoint x="589.5" y="470" as="sourcePoint" />
            <mxPoint x="589.5" y="170" as="targetPoint" />
          </mxGeometry>
        </mxCell>
        <mxCell id="Cj2O87Uv7i_2hNzbeD16-14" value="" style="endArrow=none;dashed=1;html=1;rounded=0;entryX=0.5;entryY=1;entryDx=0;entryDy=0;" edge="1" parent="1">
          <mxGeometry width="50" height="50" relative="1" as="geometry">
            <mxPoint x="719.5" y="470" as="sourcePoint" />
            <mxPoint x="719.5" y="170" as="targetPoint" />
          </mxGeometry>
        </mxCell>
        <mxCell id="Cj2O87Uv7i_2hNzbeD16-16" value="Select Buy Tickets" style="html=1;verticalAlign=bottom;labelBackgroundColor=none;endArrow=open;endFill=0;rounded=0;" edge="1" parent="1">
          <mxGeometry width="160" relative="1" as="geometry">
            <mxPoint x="60" y="220" as="sourcePoint" />
            <mxPoint x="210" y="220" as="targetPoint" />
          </mxGeometry>
        </mxCell>
        <mxCell id="Cj2O87Uv7i_2hNzbeD16-17" value="Get buy tickets idetails" style="html=1;verticalAlign=bottom;labelBackgroundColor=none;endArrow=open;endFill=0;rounded=0;" edge="1" parent="1">
          <mxGeometry width="160" relative="1" as="geometry">
            <mxPoint x="220" y="220" as="sourcePoint" />
            <mxPoint x="340" y="220" as="targetPoint" />
          </mxGeometry>
        </mxCell>
        <mxCell id="Cj2O87Uv7i_2hNzbeD16-18" value="Display buy tickets&lt;br&gt;&amp;nbsp;details" style="html=1;verticalAlign=bottom;labelBackgroundColor=none;endArrow=open;endFill=0;rounded=0;" edge="1" parent="1">
          <mxGeometry x="0.0909" y="-10" width="160" relative="1" as="geometry">
            <mxPoint x="330" y="270" as="sourcePoint" />
            <mxPoint x="210" y="270" as="targetPoint" />
            <mxPoint as="offset" />
          </mxGeometry>
        </mxCell>
        <mxCell id="Cj2O87Uv7i_2hNzbeD16-19" value="Ask for personal&lt;br&gt;&amp;nbsp;information" style="html=1;verticalAlign=bottom;labelBackgroundColor=none;endArrow=open;endFill=0;rounded=0;" edge="1" parent="1">
          <mxGeometry x="0.0909" y="-10" width="160" relative="1" as="geometry">
            <mxPoint x="190" y="270" as="sourcePoint" />
            <mxPoint x="70" y="270" as="targetPoint" />
            <mxPoint as="offset" />
          </mxGeometry>
        </mxCell>
        <mxCell id="Cj2O87Uv7i_2hNzbeD16-20" value="Enter personal information" style="html=1;verticalAlign=bottom;labelBackgroundColor=none;endArrow=open;endFill=0;rounded=0;" edge="1" parent="1">
          <mxGeometry width="160" relative="1" as="geometry">
            <mxPoint x="60" y="320" as="sourcePoint" />
            <mxPoint x="210" y="320" as="targetPoint" />
          </mxGeometry>
        </mxCell>
      </root>
    </mxGraphModel>
  </diagram>
</mxfile>
